<svg xmlns="http://www.w3.org/2000/svg" width="800" height="480" viewBox="0 0 800 480">
  <defs>
    <linearGradient id="map-bg" x1="0" y1="0" x2="1" y2="1">
      <stop offset="0" stop-color="#cdddf8"/>
      <stop offset="1" stop-color="#3e6edb"/>
    </linearGradient>
  </defs>
  <rect x="0" y="0" width="800" height="480" rx="28" ry="28" fill="url(#map-bg)"/>
  <path d="M80 120C160 140 200 220 260 240C320 260 360 220 420 210C480 200 520 220 560 250C600 280 640 300 720 300" fill="none" stroke="#ffffff" stroke-width="4" stroke-linecap="round"/>
  <circle cx="220" cy="220" r="10" fill="#ff6b3d"/>
  <circle cx="380" cy="210" r="10" fill="#ff6b3d"/>
  <circle cx="560" cy="250" r="10" fill="#ff6b3d"/>
  <rect x="90" y="320" width="200" height="24" rx="12" ry="12" fill="#ffffff" opacity="0.9"/>
  <rect x="310" y="320" width="160" height="24" rx="12" ry="12" fill="#ffffff" opacity="0.75"/>
  <rect x="500" y="320" width="140" height="24" rx="12" ry="12" fill="#ffffff" opacity="0.6"/>
</svg>

